<svg xmlns="http://www.w3.org/2000/svg" xmlns:xlink="http://www.w3.org/1999/xlink" fill="#dbb6e1" version="1.1" id="Layer_1" viewBox="0 0 496 496" xml:space="preserve">
<g>
	<g>
		<g>
			<path d="M88,284.272c-13.232,0-24,10.768-24,24v128c0,13.232,10.768,24,24,24s24-10.768,24-24v-8H96v8c0,4.416-3.584,8-8,8     s-8-3.584-8-8v-128c0-4.416,3.584-8,8-8s8,3.584,8,8v104h16v-104C112,295.04,101.232,284.272,88,284.272z"/>
			<path d="M168,284.272c-13.232,0-24,10.768-24,24v128c0,13.232,10.768,24,24,24s24-10.768,24-24v-8h-16v8c0,4.416-3.584,8-8,8     s-8-3.584-8-8v-128c0-4.416,3.584-8,8-8s8,3.584,8,8v104h16v-104C192,295.04,181.232,284.272,168,284.272z"/>
			<path d="M248,284.272c-13.232,0-24,10.768-24,24v128c0,13.232,10.768,24,24,24s24-10.768,24-24v-8h-16v8c0,4.416-3.584,8-8,8     c-4.416,0-8-3.584-8-8v-128c0-4.416,3.584-8,8-8s8,3.584,8,8v104h16v-104C272,295.04,261.232,284.272,248,284.272z"/>
			<path d="M473.944,286.152L464,282.248v-13.976c17.648,0,32-14.352,32-32s-14.352-32-32-32H32c-17.648,0-32,14.352-32,32     s14.352,32,32,32v184c0,22.056,17.944,40,40,40h352c22.056,0,40-17.944,40-40v-96.28c17.856-1.432,32-16.256,32-34.48v-3.008     C496,304.112,487.344,291.416,473.944,286.152z M464,220.272c8.824,0,16,7.176,16,16c0,8.824-7.176,16-16,16h-76.304l-81.456-32     H464z M448,268.272v7.688l-19.576-7.688H448z M248,220.272c8.824,0,16,7.176,16,16c0,8.824-7.176,16-16,16     c-8.824,0-16-7.176-16-16C232,227.448,239.176,220.272,248,220.272z M32,252.272c-8.824,0-16-7.176-16-16c0-8.824,7.176-16,16-16     h188.448c-2.752,4.728-4.448,10.144-4.448,16s1.696,11.272,4.448,16H32z M448,452.272c0,13.232-10.768,24-24,24H72     c-13.232,0-24-10.768-24-24v-184h190.44l68.816,28.04c-2.056,3.568-3.256,7.656-3.256,11.96v128c0,13.232,10.768,24,24,24     s24-10.768,24-24V314.536l32,13.04v108.696c0,13.232,10.768,24,24,24s24-10.768,24-24v-8h-16v8c0,4.416-3.584,8-8,8     c-4.416,0-8-3.584-8-8V334.088l16,6.52v71.664h16v-65.144l16,6.52V452.272z M320,436.272v-128c0-2.224,0.968-4.264,2.52-5.744     l13.424,5.464c0,0.096,0.056,0.184,0.056,0.28v128c0,4.416-3.584,8-8,8C323.584,444.272,320,440.688,320,436.272z M480,321.512     c0,10.344-8.416,18.76-18.76,18.76c-2.44,0-4.824-0.472-7.08-1.384l-187.784-76.504c8.216-5.8,13.624-15.312,13.624-26.112     c0-3.432-0.688-6.68-1.688-9.784l189.792,74.56c7.224,2.84,11.896,9.696,11.896,17.456V321.512z"/>
			<rect x="208" y="156.272" width="16" height="32"/>
			<polygon points="208,35.816 208,140.272 224,140.272 224,29.816 248,20.816 272,29.816 272,172.272 288,172.272 288,35.816      309.184,43.768 314.816,28.776 248,3.728 181.184,28.776 186.816,43.768    "/>
			<rect x="96" y="172.272" width="16" height="16"/>
			<rect x="32" y="100.272" width="16" height="88"/>
			<polygon points="32,67.816 32,84.272 48,84.272 48,61.816 72,52.816 96,61.816 96,156.272 112,156.272 112,67.816      133.184,75.768 138.816,60.776 72,35.728 5.184,60.776 10.816,75.768    "/>
			<rect x="448" y="156.272" width="16" height="32"/>
			<polygon points="384,83.816 384,188.272 400,188.272 400,77.816 424,68.816 448,77.816 448,140.272 464,140.272 464,83.816      485.184,91.768 490.816,76.776 424,51.728 357.184,76.776 362.816,91.768    "/>
			<rect x="328" y="172.272" width="16" height="16"/>
			<rect x="328" y="108.272" width="16" height="48"/>
			<rect x="152" y="156.272" width="16" height="16"/>
			<rect x="152" y="92.272" width="16" height="48"/>
		</g>
	</g>
</g>
</svg>